<?xml version="1.0" encoding="UTF-8" standalone="no"?>
<!-- Created with Inkscape (http://www.inkscape.org/) -->

<svg
   width="56"
   height="56"
   viewBox="0 0 14.816667 14.816667"
   version="1.1"
   id="svg5"
   inkscape:version="1.2.1 (9c6d41e410, 2022-07-14)"
   sodipodi:docname="app-logo.svg"
   xml:space="preserve"
   inkscape:export-filename="app-logo-full-256.png"
   inkscape:export-xdpi="438.85715"
   inkscape:export-ydpi="438.85715"
   xmlns:inkscape="http://www.inkscape.org/namespaces/inkscape"
   xmlns:sodipodi="http://sodipodi.sourceforge.net/DTD/sodipodi-0.dtd"
   xmlns="http://www.w3.org/2000/svg"
   xmlns:svg="http://www.w3.org/2000/svg"><sodipodi:namedview
     id="namedview7"
     pagecolor="#ffffff"
     bordercolor="#000000"
     borderopacity="0.25"
     inkscape:showpageshadow="2"
     inkscape:pageopacity="0.0"
     inkscape:pagecheckerboard="0"
     inkscape:deskcolor="#d1d1d1"
     inkscape:document-units="mm"
     showgrid="false"
     inkscape:zoom="8.3553674"
     inkscape:cx="-20.046994"
     inkscape:cy="17.234431"
     inkscape:window-width="1920"
     inkscape:window-height="1009"
     inkscape:window-x="-8"
     inkscape:window-y="-8"
     inkscape:window-maximized="1"
     inkscape:current-layer="layer1" /><defs
     id="defs2" /><g
     inkscape:groupmode="layer"
     id="layer2"
     inkscape:label="Background round"
     style="display:none"><circle
       style="fill:#ffc107;fill-opacity:1;stroke:none;stroke-width:0.160778"
       id="path340"
       cx="7.4083333"
       cy="7.4083333"
       r="7.4083333" /></g><g
     inkscape:groupmode="layer"
     id="layer2-5"
     inkscape:label="Backgroundsquare"
     style="display:none"
     transform="translate(-9.9891344,-3.7350458)"><rect
       style="fill:#ffc107;fill-opacity:1;stroke:none;stroke-width:0.264583"
       id="rect375"
       width="14.816667"
       height="14.816667"
       x="9.9891348"
       y="3.7350459" /></g><g
     inkscape:label="Logo"
     inkscape:groupmode="layer"
     id="layer1"
     style="display:inline"><path
       id="path13-3"
       style="display:inline;fill:#969ab9;fill-opacity:1;stroke:#969ab9;stroke-width:0.278985;stroke-dasharray:none;stroke-opacity:1"
       d="M 7.6203549,2.125795 1.4655342,6.7857757 1.969329,7.453583 3.1441217,6.5635354 V 12.141274 H 12.096586 V 6.5635354 l 1.175339,0.8900476 0.503248,-0.6536796 z m -0.0082,3.0570255 c 0.402215,0 0.782729,0.076889 1.141461,0.2309342 0.358733,0.1540489 0.671318,0.3621922 0.937648,0.6243374 0.2663315,0.2621454 0.4772941,0.5702467 0.6322021,0.9242803 0.154907,0.3540375 0.232226,0.7340774 0.232226,1.1394565 0,0.6378008 -0.183354,1.204026 -0.550239,1.6985892 C 9.6385619,10.294982 9.1696859,10.644821 8.5989739,10.850216 v 0.835167 h -0.489031 v -0.7053 c -0.08153,0.01083 -0.163263,0.02017 -0.244794,0.02826 -0.08153,0.0081 -0.166023,0.01196 -0.25299,0.01196 -0.08153,0 -0.162716,-0.0039 -0.244248,-0.01196 -0.08153,-0.0081 -0.1605,-0.0174 -0.236597,-0.02826 v 0.7053 H 6.6422719 V 10.858366 C 6.0661249,10.658377 5.5955959,10.308539 5.2314279,9.8085691 4.8672599,9.3086005 4.685559,8.7396297 4.685559,8.1018289 c 0,-0.4053791 0.077318,-0.785419 0.2322269,-1.1394565 0.154907,-0.3540336 0.364217,-0.6621349 0.627831,-0.9242803 0.263614,-0.2621452 0.573437,-0.4702885 0.929452,-0.6243374 0.356016,-0.1540446 0.734875,-0.2309342 1.13709,-0.2309342 z m -1.296093,1.718694 v 0.4868636 h 2.609132 V 6.9015145 Z m 1.605914,0.948732 -0.921256,0.9161296 0.407626,0.4053575 -0.464453,0.4624117 0.374841,0.3727547 0.921256,-0.9161293 -0.407626,-0.4053575 0.464999,-0.4618684 z" /><path
       id="path13"
       style="display:inline;fill:#272838;fill-opacity:1;stroke:#272838;stroke-width:0.278985;stroke-dasharray:none;stroke-opacity:1"
       d="M 7.4078505,1.7533852 1.2530296,6.4133659 1.7568244,7.0811732 2.9316171,6.1911256 V 11.768866 H 11.884083 V 6.1911256 l 1.175339,0.8900476 0.503248,-0.6536796 z m -0.00819,3.0570255 c 0.4022149,0 0.7827289,0.076889 1.1414612,0.2309342 0.3587333,0.1540489 0.6713176,0.3621922 0.9376486,0.6243374 0.2663319,0.2621454 0.4772943,0.5702467 0.6322027,0.9242803 0.154907,0.3540375 0.232226,0.7340774 0.232226,1.1394565 0,0.6378008 -0.183354,1.204026 -0.5502399,1.6985892 C 9.4260677,9.9225743 8.9571913,10.272413 8.38648,10.477808 v 0.835167 H 7.8974385 v -0.7053 c -0.081528,0.01083 -0.1632623,0.02017 -0.2447939,0.02826 -0.081528,0.0081 -0.1660233,0.01196 -0.2529903,0.01196 -0.081528,0 -0.1627159,-0.0039 -0.2442476,-0.01196 -0.081528,-0.0081 -0.1605004,-0.0174 -0.2365978,-0.02826 v 0.7053 H 6.4297673 V 10.485958 C 5.8536207,10.285969 5.3830909,9.9361313 5.0189232,9.4361593 4.6547553,8.9361907 4.4730544,8.3672199 4.4730544,7.7294191 c 0,-0.4053791 0.077318,-0.785419 0.2322265,-1.1394565 C 4.860188,6.235929 5.0694981,5.9278277 5.3331119,5.6656823 5.5967262,5.4035371 5.9065495,5.1953938 6.2625641,5.0413449 6.6185799,4.8873003 6.9974393,4.8104107 7.3996543,4.8104107 Z M 6.1035574,6.5291047 V 7.0159683 H 8.7126899 V 6.5291047 Z M 7.7094716,7.4778367 6.7882157,8.3939663 7.1958414,8.7993238 6.7313884,9.2617355 7.1062293,9.6344903 8.0274853,8.7183609 7.6198596,8.3130034 8.0848589,7.851135 Z"
       sodipodi:insensitive="true" /></g></svg>
